<?xml version="1.0"?>
<!DOCTYPE svg PUBLIC "-//W3C//DTD SVG 1.1//EN" "http://www.w3.org/Graphics/SVG/1.1/DTD/svg11.dtd">
<svg width="100%" height="100%" viewBox="0 0 100 100" xmlns="http://www.w3.org/2000/svg">
    <g style="display:none">
        <line x1="0%" y1="50%" x2="100%" y2="50%" stroke="#b1abab" stroke-width="1%" stroke-linecap="round" />
        <line x1="50%" y1="0%" x2="50%" y2="100%" stroke="#b1abab" stroke-width="1%" stroke-linecap="round" />
        <line x1="0%" y1="0%" x2="100%" y2="100%" stroke="#b1abab" stroke-width="1%" stroke-linecap="round" />
        <line x1="100%" y1="0%" x2="0%" y2="100%" stroke="#b1abab" stroke-width="1%" stroke-linecap="round" />
        
        <line x1="0%" y1="20%" x2="100%" y2="20%" stroke="#b1abab" stroke-width="1%" stroke-linecap="round" />
        <line x1="0%" y1="10%" x2="100%" y2="10%" stroke="#b1abab" stroke-width="1%" stroke-linecap="round" />
        <line x1="0%" y1="80%" x2="100%" y2="80%" stroke="#b1abab" stroke-width="1%" stroke-linecap="round" />
        <line x1="0%" y1="90%" x2="100%" y2="90%" stroke="#b1abab" stroke-width="1%" stroke-linecap="round" />
        
        <line x1="10%" y1="0%" x2="10%" y2="100%" stroke="#b1abab" stroke-width="1%" stroke-linecap="round" />
        <line x1="20%" y1="0%" x2="20%" y2="100%" stroke="#b1abab" stroke-width="1%" stroke-linecap="round" />
        <line x1="80%" y1="0%" x2="80%" y2="100%" stroke="#b1abab" stroke-width="1%" stroke-linecap="round" />
        <line x1="90%" y1="0%" x2="90%" y2="100%" stroke="#b1abab" stroke-width="1%" stroke-linecap="round" />
        
        <line x1="50%" y1="0%" x2="0%" y2="50%" stroke="#b1abab" stroke-width="1%" stroke-linecap="round" />
        <line x1="100%" y1="50%" x2="50%" y2="100%" stroke="#b1abab" stroke-width="1%" stroke-linecap="round" />
        
        <line x1="0%" y1="50%" x2="50%" y2="100%" stroke="#b1abab" stroke-width="1%" stroke-linecap="round" />
        <line x1="50%" y1="0%" x2="100%" y2="50%" stroke="#b1abab" stroke-width="1%" stroke-linecap="round" />
    </g>
    <g>
        <rect x="20" y="10" width="60" height="80" rx="3" style="fill: hsl(120, 100%, 20% )" ></rect>
        <rect x="20" y="10" width="18" height="80" rx="3" style="fill: hsl(10, 100%, 5% );" ></rect>
        <rect x="35" y="10" width="10" height="80" style="fill: hsl(120, 100%, 20% )" ></rect>
        <rect x="60" y="42" width="10" height="14" rx="2" style="fill: hsl(50, 80%, 37% )" ></rect>
        <rect x="65" y="35" width="18" height="26" rx="3" style="fill: hsl(50, 80%, 40% )" ></rect>
        <path transform="translate( 60, 35 ) scale( 0.27, 0.3 )" d="M 45,20 55,20 55,30 70,30 70,40 55,40 55,70 45,70 45,40 30,40 30,30 45,30 Z"></path>
        <path style="stroke-width:3; fill: none; stroke: hsl( 50, 80%, 37% ); stroke-linecap: round; stroke-linejoin: round" d="M 75,10 L 80,10 80,20" ></path>
        <path style="stroke-width:3; fill: none; stroke: hsl( 50, 80%, 37% ); stroke-linecap: round; stroke-linejoin: round" d="M 75,90 L 80,90 80,80" ></path>
    </g>
</svg>